<svg width="1439" height="4301" viewBox="0 0 1439 4301" fill="none" xmlns="http://www.w3.org/2000/svg">
<mask id="mask0" mask-type="alpha" maskUnits="userSpaceOnUse" x="0" y="0" width="1439" height="4301">
<rect width="1439" height="4301" fill="white"/>
</mask>
<g mask="url(#mask0)">
<rect width="1439" height="4301" fill="white"/>
<circle opacity="0.1" cx="1364.5" cy="4358.5" r="167.5" fill="#FF6565"/>
<circle opacity="0.1" cx="196.5" cy="3649.5" r="154.5" fill="#72BF44"/>
<circle cx="1110.5" cy="31.5" r="554.5" fill="url(#paint0_linear)"/>
<circle opacity="0.1" cx="141" cy="802" r="221" fill="#72BF44"/>
<circle opacity="0.1" cx="100" cy="1974" r="207" fill="#72BF44"/>
<circle opacity="0.1" cx="1325.5" cy="1371.5" r="223.5" fill="#00B0AE"/>
<circle opacity="0.1" cx="16.5" cy="1300.5" r="167.5" fill="#FF6565"/>
<circle opacity="0.1" cx="1213.5" cy="2597.5" r="167.5" fill="#FF6565"/>
<path fill-rule="evenodd" clip-rule="evenodd" d="M1076.32 2413.91C1075.23 2414.08 1074.51 2415.11 1074.7 2416.19L1075.3 2419.51L1072.02 2420.03C1070.85 2420.22 1070.08 2421.31 1070.29 2422.47C1070.5 2423.63 1071.61 2424.42 1072.78 2424.24L1076.05 2423.71L1076.65 2427.03C1076.85 2428.11 1077.89 2428.85 1078.98 2428.68C1080.07 2428.5 1080.79 2427.48 1080.6 2426.39L1080 2423.08L1083.28 2422.56C1084.45 2422.37 1085.22 2421.28 1085.01 2420.12C1084.8 2418.95 1083.69 2418.16 1082.52 2418.35L1079.24 2418.87L1078.65 2415.56C1078.45 2414.47 1077.41 2413.74 1076.32 2413.91Z" fill="#00B0AE"/>
<path fill-rule="evenodd" clip-rule="evenodd" d="M1214 2223.98C1216.9 2223.98 1219.25 2221.64 1219.25 2218.76C1219.25 2215.88 1216.9 2213.54 1214 2213.54C1211.1 2213.54 1208.75 2215.88 1208.75 2218.76C1208.75 2221.64 1211.1 2223.98 1214 2223.98ZM1214 2225.72C1217.87 2225.72 1221 2222.61 1221 2218.76C1221 2214.92 1217.87 2211.8 1214 2211.8C1210.13 2211.8 1207 2214.92 1207 2218.76C1207 2222.61 1210.13 2225.72 1214 2225.72Z" fill="#FF6565"/>
<path fill-rule="evenodd" clip-rule="evenodd" d="M836.659 199.23C835.548 199.511 834.876 200.639 835.157 201.75L835.98 204.998L832.731 205.821C831.621 206.102 830.948 207.231 831.23 208.341C831.511 209.452 832.639 210.124 833.75 209.843L836.998 209.02L837.821 212.269C838.102 213.379 839.231 214.052 840.341 213.77C841.452 213.489 842.124 212.361 841.843 211.25L841.02 208.002L844.269 207.179C845.379 206.898 846.052 205.769 845.77 204.659C845.489 203.548 844.361 202.876 843.25 203.157L840.002 203.98L839.179 200.731C838.898 199.621 837.769 198.948 836.659 199.23Z" fill="white"/>
<path fill-rule="evenodd" clip-rule="evenodd" d="M1135.08 455.504C1134 455.121 1132.81 455.687 1132.43 456.767L1131.31 459.925L1128.15 458.807C1127.07 458.424 1125.89 458.99 1125.5 460.07C1125.12 461.15 1125.69 462.335 1126.77 462.718L1129.93 463.836L1128.81 466.995C1128.42 468.075 1128.99 469.261 1130.07 469.643C1131.15 470.026 1132.34 469.46 1132.72 468.38L1133.84 465.221L1137 466.34C1138.08 466.723 1139.26 466.157 1139.64 465.077C1140.03 463.997 1139.46 462.812 1138.38 462.429L1135.22 461.31L1136.34 458.152C1136.72 457.072 1136.16 455.886 1135.08 455.504Z" fill="white"/>
<path fill-rule="evenodd" clip-rule="evenodd" d="M1187.08 891.504C1186 891.121 1184.81 891.687 1184.43 892.767L1183.31 895.925L1180.15 894.807C1179.07 894.424 1177.89 894.99 1177.5 896.07C1177.12 897.15 1177.69 898.335 1178.77 898.718L1181.93 899.836L1180.81 902.995C1180.42 904.075 1180.99 905.261 1182.07 905.643C1183.15 906.026 1184.34 905.46 1184.72 904.38L1185.84 901.221L1189 902.34C1190.08 902.723 1191.26 902.157 1191.64 901.077C1192.03 899.997 1191.46 898.812 1190.38 898.429L1187.22 897.31L1188.34 894.152C1188.72 893.072 1188.16 891.886 1187.08 891.504Z" fill="#00B0AE"/>
<path fill-rule="evenodd" clip-rule="evenodd" d="M864.077 280.504C862.997 280.121 861.812 280.687 861.429 281.767L860.31 284.925L857.152 283.807C856.072 283.424 854.886 283.99 854.504 285.07C854.121 286.15 854.687 287.335 855.767 287.718L858.925 288.836L857.807 291.995C857.424 293.075 857.99 294.261 859.07 294.643C860.15 295.026 861.335 294.46 861.718 293.38L862.836 290.221L865.995 291.34C867.075 291.723 868.261 291.157 868.643 290.077C869.026 288.997 868.46 287.812 867.38 287.429L864.221 286.31L865.34 283.152C865.723 282.072 865.157 280.886 864.077 280.504Z" fill="white"/>
<path fill-rule="evenodd" clip-rule="evenodd" d="M1157.08 216.504C1156 216.121 1154.81 216.687 1154.43 217.767L1153.31 220.925L1150.15 219.807C1149.07 219.424 1147.89 219.99 1147.5 221.07C1147.12 222.15 1147.69 223.335 1148.77 223.718L1151.93 224.836L1150.81 227.995C1150.42 229.075 1150.99 230.261 1152.07 230.643C1153.15 231.026 1154.34 230.46 1154.72 229.38L1155.84 226.221L1159 227.34C1160.08 227.723 1161.26 227.157 1161.64 226.077C1162.03 224.997 1161.46 223.812 1160.38 223.429L1157.22 222.31L1158.34 219.152C1158.72 218.072 1158.16 216.886 1157.08 216.504Z" fill="white"/>
<path fill-rule="evenodd" clip-rule="evenodd" d="M878 236.25C880.899 236.25 883.25 233.899 883.25 231C883.25 228.101 880.899 225.75 878 225.75C875.101 225.75 872.75 228.101 872.75 231C872.75 233.899 875.101 236.25 878 236.25ZM878 238C881.866 238 885 234.866 885 231C885 227.134 881.866 224 878 224C874.134 224 871 227.134 871 231C871 234.866 874.134 238 878 238Z" fill="white"/>
<path fill-rule="evenodd" clip-rule="evenodd" d="M1103 441.25C1105.9 441.25 1108.25 438.899 1108.25 436C1108.25 433.101 1105.9 430.75 1103 430.75C1100.1 430.75 1097.75 433.101 1097.75 436C1097.75 438.899 1100.1 441.25 1103 441.25ZM1103 443C1106.87 443 1110 439.866 1110 436C1110 432.134 1106.87 429 1103 429C1099.13 429 1096 432.134 1096 436C1096 439.866 1099.13 443 1103 443Z" fill="white"/>
<path fill-rule="evenodd" clip-rule="evenodd" d="M1107.5 485.875C1109.36 485.875 1110.88 484.364 1110.88 482.5C1110.88 480.636 1109.36 479.125 1107.5 479.125C1105.64 479.125 1104.12 480.636 1104.12 482.5C1104.12 484.364 1105.64 485.875 1107.5 485.875ZM1107.5 487C1109.99 487 1112 484.985 1112 482.5C1112 480.015 1109.99 478 1107.5 478C1105.01 478 1103 480.015 1103 482.5C1103 484.985 1105.01 487 1107.5 487Z" fill="white"/>
<path fill-rule="evenodd" clip-rule="evenodd" d="M120.322 3830.93C119.232 3831.11 118.507 3832.13 118.703 3833.22L119.298 3836.53L116.019 3837.05C114.853 3837.24 114.078 3838.33 114.287 3839.5C114.496 3840.66 115.611 3841.45 116.777 3841.26L120.055 3840.74L120.65 3844.05C120.845 3845.14 121.887 3845.87 122.977 3845.7C124.066 3845.52 124.791 3844.5 124.596 3843.42L124.001 3840.11L127.281 3839.58C128.446 3839.39 129.222 3838.3 129.012 3837.14C128.803 3835.98 127.689 3835.19 126.523 3835.37L123.244 3835.9L122.649 3832.58C122.454 3831.5 121.412 3830.76 120.322 3830.93Z" fill="#00B0AE"/>
<path fill-rule="evenodd" clip-rule="evenodd" d="M151.91 3879.17C150.842 3878.93 149.757 3879.59 149.487 3880.65L148.654 3883.93L145.438 3883.18C144.281 3882.91 143.104 3883.63 142.811 3884.78C142.518 3885.93 143.219 3887.08 144.377 3887.35L147.594 3888.1L146.761 3891.37C146.491 3892.44 147.138 3893.5 148.206 3893.75C149.275 3893.99 150.359 3893.33 150.63 3892.27L151.462 3888.99L154.678 3889.74C155.836 3890.01 157.012 3889.29 157.305 3888.14C157.598 3886.99 156.897 3885.84 155.739 3885.57L152.522 3884.82L153.355 3881.55C153.625 3880.48 152.978 3879.42 151.91 3879.17Z" fill="#72BF44"/>
<path fill-rule="evenodd" clip-rule="evenodd" d="M1341.86 3888.09C1340.79 3887.85 1339.7 3888.52 1339.44 3889.58L1338.62 3892.86L1335.4 3892.13C1334.24 3891.86 1333.07 3892.58 1332.78 3893.74C1332.49 3894.89 1333.2 3896.04 1334.36 3896.3L1337.58 3897.03L1336.76 3900.31C1336.49 3901.38 1337.14 3902.44 1338.21 3902.68C1339.28 3902.92 1340.37 3902.26 1340.63 3901.2L1341.45 3897.92L1344.67 3898.65C1345.83 3898.91 1347 3898.19 1347.29 3897.04C1347.58 3895.89 1346.87 3894.74 1345.71 3894.47L1342.49 3893.74L1343.31 3890.46C1343.58 3889.4 1342.93 3888.34 1341.86 3888.09Z" fill="#00B0AE"/>
<path fill-rule="evenodd" clip-rule="evenodd" d="M1277 3790.18C1279.9 3790.18 1282.25 3787.84 1282.25 3784.96C1282.25 3782.08 1279.9 3779.74 1277 3779.74C1274.1 3779.74 1271.75 3782.08 1271.75 3784.96C1271.75 3787.84 1274.1 3790.18 1277 3790.18ZM1277 3791.92C1280.87 3791.92 1284 3788.81 1284 3784.96C1284 3781.12 1280.87 3778 1277 3778C1273.13 3778 1270 3781.12 1270 3784.96C1270 3788.81 1273.13 3791.92 1277 3791.92Z" fill="#72BF44"/>
<circle opacity="0.1" cx="67.5" cy="3234.5" r="174.5" fill="#00B0AE"/>
</g>
<defs>
<linearGradient id="paint0_linear" x1="710.5" y1="-457" x2="1665" y2="771.5" gradientUnits="userSpaceOnUse">
<stop stop-color="#37E1B8"/>
<stop offset="1" stop-color="#24B8B6"/>
</linearGradient>
</defs>
</svg>
