<svg width="45" height="46" viewBox="0 0 45 46" fill="none" xmlns="http://www.w3.org/2000/svg">
<g filter="url(#filter0_d)">
<circle cx="22.5" cy="22.8809" r="14.5" fill="white"/>
</g>
<path d="M19.019 26.3809H20.8242V19.7809H19.019V26.3809ZM24.5297 19.7809C24.441 19.7809 24.3555 19.7871 24.2732 19.7996C24.1908 19.8121 24.1116 19.8309 24.0356 19.8559C23.9596 19.8809 23.8963 19.9027 23.8456 19.9215C23.7949 19.9402 23.7316 19.9715 23.6556 20.0152C23.5796 20.059 23.5321 20.0871 23.5131 20.0996C23.4941 20.1121 23.4466 20.1496 23.3705 20.2121C23.2945 20.2746 23.2565 20.3059 23.2565 20.3059V19.7809H21.4513V26.3809H23.2565V22.2184C23.2565 22.2059 23.2565 22.1809 23.2565 22.1434C23.2565 22.1059 23.2724 22.0371 23.304 21.9371C23.3357 21.8371 23.38 21.7527 23.4371 21.684C23.4941 21.6152 23.5891 21.5496 23.7221 21.4871C23.8551 21.4246 24.0103 21.3934 24.1876 21.3934C24.4917 21.3934 24.7165 21.4684 24.8622 21.6184C25.0079 21.7684 25.0808 21.9684 25.0808 22.2184V26.3809H27V22.2934C27 21.8559 26.9303 21.4777 26.791 21.159C26.6516 20.8402 26.4901 20.5965 26.3064 20.4277C26.1227 20.259 25.9074 20.1215 25.6603 20.0152C25.4133 19.909 25.2043 19.8434 25.0333 19.8184C24.8622 19.7934 24.6944 19.7809 24.5297 19.7809ZM19.266 17.6434C19.0887 17.8184 19 18.0309 19 18.2809C19 18.5309 19.0887 18.7434 19.266 18.9184C19.4434 19.0934 19.6587 19.1809 19.9121 19.1809C20.1655 19.1809 20.3808 19.0934 20.5582 18.9184C20.7356 18.7434 20.8242 18.5309 20.8242 18.2809C20.8242 18.0309 20.7356 17.8184 20.5582 17.6434C20.3808 17.4684 20.1655 17.3809 19.9121 17.3809C19.6587 17.3809 19.4434 17.4684 19.266 17.6434Z" fill="#00B0AE"/>
<defs>
<filter id="filter0_d" x="0" y="0.380859" width="45" height="45" filterUnits="userSpaceOnUse" color-interpolation-filters="sRGB">
<feFlood flood-opacity="0" result="BackgroundImageFix"/>
<feColorMatrix in="SourceAlpha" type="matrix" values="0 0 0 0 0 0 0 0 0 0 0 0 0 0 0 0 0 0 127 0"/>
<feOffset/>
<feGaussianBlur stdDeviation="4"/>
<feColorMatrix type="matrix" values="0 0 0 0 0 0 0 0 0 0 0 0 0 0 0 0 0 0 0.14 0"/>
<feBlend mode="normal" in2="BackgroundImageFix" result="effect1_dropShadow"/>
<feBlend mode="normal" in="SourceGraphic" in2="effect1_dropShadow" result="shape"/>
</filter>
</defs>
</svg>
