<svg width="408" height="73" viewBox="0 0 408 73" fill="none" xmlns="http://www.w3.org/2000/svg">
<path d="M94.5449 26.5293C94.5449 31.3809 97.9375 34.5273 103.123 34.5273C108.555 34.5273 111.789 31.4512 111.789 26.0547V8.63477H106.48V26.0195C106.48 28.5684 105.285 29.9395 103.07 29.9395C101.066 29.9395 99.7305 28.5859 99.6953 26.5293H94.5449ZM134.643 29.6055H123.147V23.207H133.993V19.1289H123.147V13.0117H134.643V8.63477H117.839V34H134.643V29.6055ZM151.556 34V13.0117H158.992V8.63477H138.83V13.0117H146.248V34H151.556ZM176.714 34H182.356L173.532 8.63477H167.292L158.485 34H163.934L165.868 27.8477H174.78L176.714 34ZM170.262 13.4863H170.385L173.637 23.875H167.01L170.262 13.4863ZM191.886 12.7832H196.492C199.128 12.7832 200.781 14.3652 200.781 16.8262C200.781 19.3398 199.216 20.8691 196.544 20.8691H191.886V12.7832ZM191.886 24.7188H196.228L200.957 34H206.968L201.625 23.9277C204.543 22.7852 206.23 19.9727 206.23 16.7207C206.23 11.7109 202.89 8.63477 197.054 8.63477H186.578V34H191.886V24.7188ZM222.791 34V13.0117H230.227V8.63477H210.065V13.0117H217.483V34H222.791ZM270.996 8.63477H264.844L257.637 26.6172H257.496L250.289 8.63477H244.137V34H248.865V16.8789H249.006L255.897 33.7539H259.236L266.127 16.8789H266.268V34H270.996V8.63477ZM293.64 29.6055H282.144V23.207H292.989V19.1289H282.144V13.0117H293.64V8.63477H276.835V34H293.64V29.6055ZM299.092 8.63477V34H308.865C316.476 34 320.959 29.2715 320.959 21.2207C320.959 13.1699 316.476 8.63477 308.865 8.63477H299.092ZM304.4 13.0117H308.232C312.908 13.0117 315.545 15.9297 315.545 21.2383C315.545 26.7227 312.978 29.6055 308.232 29.6055H304.4V13.0117ZM331.298 34V8.63477H325.989V34H331.298ZM348.351 34.4395C354.574 34.4395 358.916 30.8535 359.513 25.1934H354.345C353.783 28.1992 351.515 30.0449 348.369 30.0449C344.308 30.0449 341.759 26.7051 341.759 21.291C341.759 15.9473 344.343 12.5898 348.351 12.5898C351.445 12.5898 353.836 14.6289 354.328 17.7402H359.496C359.091 12.0625 354.451 8.19531 348.351 8.19531C341.004 8.19531 336.345 13.1348 336.345 21.3086C336.345 29.5 340.968 34.4395 348.351 34.4395ZM380.153 34H385.795L376.971 8.63477H370.731L361.924 34H367.374L369.307 27.8477H378.219L380.153 34ZM373.702 13.4863H373.825L377.077 23.875H370.45L373.702 13.4863ZM406.417 29.6055H395.326V8.63477H390.017V34H406.417V29.6055Z" fill="white"/>
<path d="M107.77 57.082V55.4902H101.832V57.6387H104.898L104.889 57.8633C104.83 59.6113 103.492 60.793 101.568 60.793C99.2246 60.793 97.7402 58.9277 97.7402 55.8711C97.7402 52.873 99.1367 51.1055 101.461 51.1055C103.053 51.1055 104.254 51.9844 104.684 53.459H107.643C107.223 50.6074 104.742 48.6641 101.451 48.6641C97.3105 48.6641 94.7324 51.3984 94.7324 55.9102C94.7324 60.4902 97.3105 63.2441 101.52 63.2441C105.445 63.2441 107.77 60.9199 107.77 57.082ZM114.372 63V48.9082H111.423V63H114.372ZM127.644 63H130.779L125.877 48.9082H122.41L117.517 63H120.545L121.619 59.582H126.57L127.644 63ZM124.06 51.6035H124.129L125.935 57.375H122.254L124.06 51.6035ZM122.341 45.5195C122.625 45.4023 123.054 45.334 123.377 45.334C123.943 45.334 124.324 45.627 124.324 46.0469C124.324 46.4766 123.933 46.8965 123.377 47.0918L124.216 48.1172C125.291 47.6973 126.052 46.8379 126.052 45.8906C126.052 44.709 125.144 43.9863 123.738 43.9863C123.22 43.9863 122.683 44.0742 122.341 44.2305V45.5195ZM136.873 63V48.9082H133.924V63H136.873ZM146.914 48.9082V63H149.863V58.5566H152.646C155.615 58.5566 157.676 56.623 157.676 53.7324C157.676 50.832 155.684 48.9082 152.793 48.9082H146.914ZM149.863 51.2422H152.012C153.701 51.2422 154.678 52.1406 154.678 53.7422C154.678 55.3535 153.691 56.252 152.002 56.252H149.863V51.2422ZM173.36 63V48.9082H170.411V54.6309H164.063V48.9082H161.114V63H164.063V57.0625H170.411V63H173.36ZM186.632 63H189.767L184.865 48.9082H181.398L176.505 63H179.533L180.607 59.582H185.558L186.632 63ZM183.048 51.6035H183.117L184.923 57.375H181.242L183.048 51.6035ZM184.201 47.834L186.906 44.8066H184.24L181.974 47.834H184.201ZM192.912 48.9082V63H195.862V58.5566H198.645C201.614 58.5566 203.674 56.623 203.674 53.7324C203.674 50.832 201.682 48.9082 198.791 48.9082H192.912ZM195.862 51.2422H198.01C199.7 51.2422 200.676 52.1406 200.676 53.7422C200.676 55.3535 199.69 56.252 198 56.252H195.862V51.2422ZM220.062 63V57.7363L224.975 48.9082H221.811L218.646 54.9238H218.578L215.424 48.9082H212.211L217.113 57.7363V63H220.062ZM240.474 63V51.3398H244.605V48.9082H233.404V51.3398H237.525V63H240.474ZM257.272 60.5586H250.885V57.0039H256.911V54.7383H250.885V51.3398H257.272V48.9082H247.936V63H257.272V60.5586ZM251.481 45.2266L248.932 47.8047H251.198L252.565 46.3496H252.682L254.039 47.8047H256.305L253.756 45.2266H251.481ZM253.454 44.5723H255.514L257.829 42.1992H255.338L253.454 44.5723ZM273.465 63V51.3398H277.596V48.9082H266.395V51.3398H270.516V63H273.465ZM293.173 63V48.9082H290.223V54.6309H283.876V48.9082H280.927V63H283.876V57.0625H290.223V63H293.173ZM302.461 44.8262L299.785 47.9316H301.953L303.545 46.0078H303.603L305.195 47.9316H307.363L304.687 44.8262H302.461ZM303.574 48.6641C299.394 48.6641 296.777 51.4668 296.777 55.959C296.777 60.4414 299.394 63.2441 303.574 63.2441C307.744 63.2441 310.371 60.4414 310.371 55.959C310.371 51.4668 307.744 48.6641 303.574 48.6641ZM303.574 51.125C305.879 51.125 307.353 53 307.353 55.959C307.353 58.9082 305.879 60.7734 303.574 60.7734C301.259 60.7734 299.785 58.9082 299.785 55.959C299.785 53 301.269 51.125 303.574 51.125ZM316.797 63V53.7715H316.885L323.477 63H325.918V48.9082H323.096V58.0879H323.018L316.436 48.9082H313.975V63H316.797ZM342.57 57.082V55.4902H336.632V57.6387H339.698L339.689 57.8633C339.63 59.6113 338.292 60.793 336.368 60.793C334.025 60.793 332.54 58.9277 332.54 55.8711C332.54 52.873 333.937 51.1055 336.261 51.1055C337.853 51.1055 339.054 51.9844 339.484 53.459H342.443C342.023 50.6074 339.542 48.6641 336.251 48.6641C332.111 48.6641 329.532 51.3984 329.532 55.9102C329.532 60.4902 332.111 63.2441 336.32 63.2441C340.245 63.2441 342.57 60.9199 342.57 57.082ZM367.141 48.9082H363.723L359.72 58.8984H359.641L355.638 48.9082H352.22V63H354.846V53.4883H354.925L358.753 62.8633H360.608L364.436 53.4883H364.514V63H367.141V48.9082ZM374.134 63V48.9082H371.185V63H374.134ZM381 63V53.7715H381.088L387.68 63H390.121V48.9082H387.299V58.0879H387.221L380.639 48.9082H378.178V63H381ZM406.421 63V48.9082H403.472V54.6309H397.124V48.9082H394.175V63H397.124V57.0625H403.472V63H406.421Z" fill="white"/>
<path d="M61.6184 72.3808L10.0118 72.3397C4.31425 72.3397 0 67.6393 0 61.9248L0.0410881 10.2887C0.0410881 4.57423 4.4923 0.380859 10.1898 0.380859L61.7965 0.421971C67.5077 0.421971 72 4.71127 72 10.4258L71.9726 62.0481C71.9589 67.7626 67.3297 72.3945 61.6184 72.3808Z" fill="white"/>
<path d="M47.7443 35.8462C48.073 35.8462 48.3059 36.0106 48.3059 36.3806V42.2733C48.3059 42.424 48.2511 42.5473 48.1415 42.657C48.0319 42.7666 47.9224 42.8214 47.8128 42.8214L42.0194 42.8351V48.5359C42.0194 48.6867 41.9646 48.81 41.855 48.9196C41.7455 49.0293 41.6359 49.0841 41.5263 49.0841L34.8427 49.043C34.7331 49.043 35.2946 48.9881 35.1851 48.8785C35.0755 48.7689 35.0207 48.6455 35.0207 48.4948V42.8351L29.2684 42.8214C29.1588 42.8214 29.0492 42.7666 28.9397 42.657C28.8301 42.5473 28.7753 43.0955 28.7753 42.9447V36.3943C28.7753 36.038 28.9397 35.8462 29.2684 35.8462H35.0207L35.007 30.0494C35.007 29.6931 35.1577 29.5835 35.4864 29.5835H41.54C41.8687 29.5835 42.0331 29.652 42.0331 30.022L42.0468 35.8325L47.7443 35.8462Z" fill="#00B0AE"/>
<path d="M46.9636 13.6733C46.9636 13.6733 54.2225 21.3338 54.2225 29.4602C54.2225 27.2127 54.2773 52.6197 54.3321 52.9074H35.9657C35.9657 52.9074 28.7616 52.8526 25.4883 46.2748C23.2969 41.9581 23.9954 36.8191 26.9264 32.9684C28.6521 30.6661 30.953 28.7613 33.8429 27.5553C35.459 26.8701 37.0614 26.4042 38.6775 26.2261C35.5138 25.7053 32.1719 26.0479 28.9397 27.432C27.5564 28.0076 26.2963 28.8161 25.1322 29.6794C25.1322 29.5698 25.187 29.4465 25.187 29.3916C25.187 29.3916 25.1322 29.5698 24.9541 29.7891C19.1333 34.4621 16.8872 42.4651 19.9414 49.4952C22.4204 55.196 27.7755 59.1701 33.6511 59.7457H34.9796H61.2349V29.2272C61.2486 29.2957 59.5229 17.3597 46.9636 13.6733Z" fill="#00B0AE"/>
<path d="M30.3778 16.154C42.0057 16.154 51.4012 25.6097 51.4012 37.2443C51.4012 38.2858 51.3464 39.3136 51.1684 40.355C52.086 37.998 52.6064 35.3942 52.6064 32.7494C52.6064 21.1148 43.1562 11.6592 31.583 11.6592C21.0508 11.6592 12.2853 19.4978 10.7925 29.6386C13.7919 21.7452 21.4617 16.154 30.3778 16.154Z" fill="#00B0AE"/>
<path d="M41.9509 23.2938C41.9509 23.239 41.9509 23.239 41.9509 23.2938C40.6224 22.4304 39.1295 21.6767 37.4038 21.1012C37.349 21.1012 37.2943 21.0463 37.171 21.0463C37.0614 20.9915 36.8834 20.9915 36.7738 20.9367C36.5958 20.8819 36.4314 20.8271 36.3081 20.8271C36.2534 20.8271 36.1986 20.7723 36.0753 20.7723C35.8425 20.7175 35.6096 20.6626 35.3905 20.5941C35.3357 20.5941 35.3357 20.5941 35.2809 20.5941C35.0481 20.5393 34.7605 20.4845 34.5277 20.416H34.4729C33.1444 20.183 31.8295 20.0186 30.3778 20.0186C18.8046 20.0186 9.42285 28.9535 9.42285 39.9576C9.42285 48.9474 15.6408 56.4982 24.2283 59.0334C18.5855 55.4567 14.8465 49.3585 14.8465 42.438C14.8465 38.8613 15.8189 35.4628 17.6131 32.5302C22.2149 24.8697 31.4871 21.526 40.0746 24.0612C42.8411 24.8697 45.5393 26.3634 47.6758 29.0768C47.7169 29.0083 46.046 25.829 41.9509 23.2938Z" fill="#00B0AE"/>
</svg>
