<svg width="45" height="46" viewBox="0 0 45 46" fill="none" xmlns="http://www.w3.org/2000/svg">
<g filter="url(#filter0_d)">
<circle cx="22.5" cy="22.8809" r="14.5" fill="white"/>
</g>
<path d="M19.6296 23.319C19.765 23.0846 19.8327 22.8698 19.8327 22.6745C19.8327 22.4792 19.7988 22.3269 19.7311 22.2175C19.6634 22.1082 19.5844 21.9715 19.4941 21.8074C19.4039 21.6434 19.3512 21.4833 19.3361 21.327C19.2459 20.749 19.306 20.1904 19.5167 19.6514C19.7274 19.1124 20.0396 18.6789 20.4534 18.3508C20.8671 18.0227 21.3223 17.7728 21.8188 17.6009C22.3154 17.4291 22.827 17.4056 23.3536 17.5306C23.8802 17.6556 24.3391 17.9212 24.7304 18.3274C25.0614 18.6867 25.2645 19.2062 25.3398 19.8858C25.415 20.5654 25.3736 21.2138 25.2156 21.8309C25.0576 22.448 24.7717 22.9674 24.358 23.3893C23.9442 23.8111 23.474 23.9673 22.9473 23.858C22.5561 23.7799 22.3154 23.5846 22.2251 23.2721C22.1348 22.9596 22.1499 22.6003 22.2702 22.1941C22.3906 21.7879 22.5185 21.3778 22.6539 20.9638C22.7893 20.5498 22.842 20.167 22.8119 19.8155C22.7818 19.464 22.6088 19.2257 22.2928 19.1007C21.9618 18.9757 21.6571 18.9992 21.3787 19.171C21.1004 19.3429 20.8972 19.589 20.7693 19.9092C20.6414 20.2295 20.5775 20.5888 20.5775 20.9872C20.5775 21.3856 20.6527 21.7332 20.8032 22.0301C20.743 22.3425 20.6527 22.7331 20.5324 23.2018C20.412 23.6705 20.3104 24.0689 20.2277 24.397C20.1449 24.7251 20.0621 25.1391 19.9794 25.639C19.8966 26.1389 19.8553 26.5764 19.8553 26.9513C19.8553 27.3263 19.8778 27.8028 19.923 28.3809C20.4195 28.0059 20.7919 27.4903 21.0402 26.8342C21.2884 26.178 21.5104 25.3422 21.706 24.3267C21.7963 24.3735 21.9166 24.4516 22.0671 24.561C22.2176 24.6704 22.3379 24.7524 22.4282 24.8071C22.5185 24.8618 22.6351 24.9164 22.7781 24.9711C22.921 25.0258 23.0752 25.0609 23.2407 25.0766C24.0683 25.1547 24.7943 24.9282 25.4187 24.397C26.0432 23.8658 26.4833 23.1784 26.7391 22.3347C26.9949 21.4911 27.0626 20.6162 26.9422 19.71C26.7918 18.5695 26.2313 17.6986 25.2608 17.0971C24.2902 16.4956 23.173 16.2729 21.9091 16.4292C20.901 16.5385 20.0057 16.9799 19.2233 17.7532C18.4409 18.5266 18.0346 19.4601 18.0045 20.5537C17.9443 22.1316 18.486 23.0534 19.6296 23.319Z" fill="#00B0AE"/>
<defs>
<filter id="filter0_d" x="0" y="0.380859" width="45" height="45" filterUnits="userSpaceOnUse" color-interpolation-filters="sRGB">
<feFlood flood-opacity="0" result="BackgroundImageFix"/>
<feColorMatrix in="SourceAlpha" type="matrix" values="0 0 0 0 0 0 0 0 0 0 0 0 0 0 0 0 0 0 127 0"/>
<feOffset/>
<feGaussianBlur stdDeviation="4"/>
<feColorMatrix type="matrix" values="0 0 0 0 0 0 0 0 0 0 0 0 0 0 0 0 0 0 0.14 0"/>
<feBlend mode="normal" in2="BackgroundImageFix" result="effect1_dropShadow"/>
<feBlend mode="normal" in="SourceGraphic" in2="effect1_dropShadow" result="shape"/>
</filter>
</defs>
</svg>
