<svg width="45" height="46" viewBox="0 0 45 46" fill="none" xmlns="http://www.w3.org/2000/svg">
<g filter="url(#filter0_d)">
<circle cx="22.5" cy="22.8809" r="14.5" fill="white"/>
</g>
<path d="M27.6719 18.5732C27.1875 18.8616 26.6641 19.0619 26.1016 19.1741C25.6172 18.6453 25.0156 18.3809 24.2969 18.3809C23.625 18.3809 23.0469 18.6293 22.5625 19.1261C22.0781 19.6228 21.8359 20.2158 21.8359 20.9049C21.8359 21.0972 21.8594 21.2895 21.9062 21.4818C20.9062 21.4337 19.9648 21.1773 19.082 20.7126C18.1992 20.2478 17.4531 19.6229 16.8438 18.8376C16.6094 19.2222 16.4922 19.6469 16.4922 20.1116C16.4922 21.0091 16.8594 21.7062 17.5938 22.203C17.2031 22.203 16.8359 22.0988 16.4922 21.8905V21.9386C16.4922 22.5315 16.6758 23.0603 17.043 23.5251C17.4102 23.9898 17.8828 24.2863 18.4609 24.4145C18.2422 24.4626 18.0234 24.4866 17.8047 24.4866C17.6484 24.4866 17.4922 24.4706 17.3359 24.4386C17.5078 24.9514 17.8008 25.372 18.2148 25.7006C18.6289 26.0291 19.1016 26.1934 19.6328 26.1934C18.7422 26.9145 17.7266 27.2751 16.5859 27.2751C16.3984 27.2751 16.2031 27.2671 16 27.2511C17.1563 28.0043 18.4141 28.3809 19.7734 28.3809C20.8672 28.3809 21.8672 28.1645 22.7734 27.7318C23.6797 27.2991 24.418 26.7342 24.9883 26.0371C25.5586 25.34 26 24.5708 26.3125 23.7294C26.625 22.8881 26.7812 22.0427 26.7812 21.1934C26.7812 21.0812 26.7812 20.977 26.7812 20.8809C27.2656 20.5123 27.6719 20.0716 28 19.5587C27.5469 19.7671 27.0781 19.9033 26.5938 19.9674C27.125 19.6309 27.4844 19.1661 27.6719 18.5732Z" fill="#00B0AE"/>
<defs>
<filter id="filter0_d" x="0" y="0.380859" width="45" height="45" filterUnits="userSpaceOnUse" color-interpolation-filters="sRGB">
<feFlood flood-opacity="0" result="BackgroundImageFix"/>
<feColorMatrix in="SourceAlpha" type="matrix" values="0 0 0 0 0 0 0 0 0 0 0 0 0 0 0 0 0 0 127 0"/>
<feOffset/>
<feGaussianBlur stdDeviation="4"/>
<feColorMatrix type="matrix" values="0 0 0 0 0 0 0 0 0 0 0 0 0 0 0 0 0 0 0.14 0"/>
<feBlend mode="normal" in2="BackgroundImageFix" result="effect1_dropShadow"/>
<feBlend mode="normal" in="SourceGraphic" in2="effect1_dropShadow" result="shape"/>
</filter>
</defs>
</svg>
