<svg width="146" height="40" viewBox="0 0 146 40" fill="none" xmlns="http://www.w3.org/2000/svg">
<path d="M16.9008 21.7969L4.50687 9.71094L20.2809 18.5156L16.9008 21.7969ZM1.23939 9L15.7177 23L1.23939 37C0.413127 36.599 0 35.9609 0 35.0859V10.9141C0 10.0391 0.413127 9.40104 1.23939 9ZM25.1822 21.3594C25.708 21.724 25.9802 22.2708 25.999 23C26.0178 23.7292 25.7643 24.276 25.2385 24.6406L21.8583 26.5L18.1965 23L21.8583 19.5L25.1822 21.3594ZM4.50687 36.2891L16.9008 24.2031L20.2809 27.4844L4.50687 36.2891Z" fill="white"/>
<path d="M44.7871 13.9404C43.502 13.9404 42.6611 12.8945 42.6611 11.2881C42.6611 9.6748 43.502 8.62207 44.7871 8.62207C46.0791 8.62207 46.9541 9.70215 46.9541 11.2881C46.9541 12.8672 46.0791 13.9404 44.7871 13.9404ZM44.8076 17.6318C46.8789 17.6318 48.1436 16.5586 48.1436 14.7949V7.63086H47.0088V8.82715H46.9883C46.4961 8.02051 45.6279 7.5625 44.5889 7.5625C42.6953 7.5625 41.4443 9.03906 41.4443 11.2881C41.4443 13.5166 42.6953 15 44.5615 15C45.5938 15 46.4619 14.5352 46.9268 13.7354H46.9541V14.8906C46.9541 15.9365 46.1475 16.5996 44.876 16.5996C43.9053 16.5996 43.1738 16.2168 42.9961 15.6016H41.7588C41.9297 16.8252 43.1396 17.6318 44.8076 17.6318ZM52.7031 8.6084C53.8652 8.6084 54.6582 9.44238 54.6855 10.6934H50.6318C50.7139 9.44922 51.5479 8.6084 52.7031 8.6084ZM54.6582 12.8945C54.4463 13.585 53.7285 14.0225 52.8057 14.0225C51.4932 14.0225 50.6318 13.1133 50.6318 11.7119V11.6436H55.9229V11.1787C55.9229 8.9502 54.6924 7.5625 52.7236 7.5625C50.7139 7.5625 49.4014 9.05957 49.4014 11.3428C49.4014 13.626 50.707 15.0684 52.7783 15.0684C54.3506 15.0684 55.6289 14.1592 55.834 12.8945H54.6582ZM57.5635 5.96973V7.63086H56.5381V8.61523H57.5635V13.0859C57.5635 14.501 58.083 15.0547 59.416 15.0547C59.6963 15.0547 60.0381 15.0273 60.1816 14.9932V13.9883C60.0996 14.002 59.8125 14.0225 59.6689 14.0225C59.04 14.0225 58.7529 13.7148 58.7529 13.0381V8.61523H60.1885V7.63086H58.7529V5.96973H57.5635ZM64.9258 15H66.1152V7.63086H64.9258V15ZM65.5205 6.44141C65.9375 6.44141 66.2725 6.09961 66.2725 5.68945C66.2725 5.27246 65.9375 4.9375 65.5205 4.9375C65.1104 4.9375 64.7686 5.27246 64.7686 5.68945C64.7686 6.09961 65.1104 6.44141 65.5205 6.44141ZM68.1865 5.96973V7.63086H67.1611V8.61523H68.1865V13.0859C68.1865 14.501 68.7061 15.0547 70.0391 15.0547C70.3193 15.0547 70.6611 15.0273 70.8047 14.9932V13.9883C70.7227 14.002 70.4355 14.0225 70.292 14.0225C69.6631 14.0225 69.376 13.7148 69.376 13.0381V8.61523H70.8115V7.63086H69.376V5.96973H68.1865ZM78.5156 15.0684C80.5869 15.0684 81.9131 13.5986 81.9131 11.3154C81.9131 9.02539 80.5869 7.5625 78.5156 7.5625C76.4443 7.5625 75.1182 9.02539 75.1182 11.3154C75.1182 13.5986 76.4443 15.0684 78.5156 15.0684ZM78.5156 14.0088C77.1484 14.0088 76.3281 13.0039 76.3281 11.3154C76.3281 9.62695 77.1416 8.62207 78.5156 8.62207C79.8896 8.62207 80.7031 9.62012 80.7031 11.3154C80.7031 13.0039 79.8896 14.0088 78.5156 14.0088ZM83.1641 15H84.3535V10.7207C84.3535 9.45605 85.085 8.62207 86.2949 8.62207C87.457 8.62207 88.0176 9.27832 88.0176 10.4814V15H89.207V10.2764C89.207 8.60156 88.2705 7.5625 86.6504 7.5625C85.5088 7.5625 84.7773 7.99316 84.3125 8.82715H84.2852V7.63086H83.1641V15Z" fill="white"/>
<path d="M50.6387 29.8574V28.7432H46.4824V30.2471H48.6289L48.6221 30.4043C48.5811 31.6279 47.6445 32.4551 46.2979 32.4551C44.6572 32.4551 43.6182 31.1494 43.6182 29.0098C43.6182 26.9111 44.5957 25.6738 46.2227 25.6738C47.3369 25.6738 48.1777 26.2891 48.4785 27.3213H50.5498C50.2559 25.3252 48.5195 23.9648 46.2158 23.9648C43.3174 23.9648 41.5127 25.8789 41.5127 29.0371C41.5127 32.2432 43.3174 34.1709 46.2637 34.1709C49.0117 34.1709 50.6387 32.5439 50.6387 29.8574ZM57.5061 23.9648C54.5803 23.9648 52.7482 25.9268 52.7482 29.0713C52.7482 32.209 54.5803 34.1709 57.5061 34.1709C60.425 34.1709 62.2639 32.209 62.2639 29.0713C62.2639 25.9268 60.425 23.9648 57.5061 23.9648ZM57.5061 25.6875C59.1193 25.6875 60.1516 27 60.1516 29.0713C60.1516 31.1357 59.1193 32.4414 57.5061 32.4414C55.8859 32.4414 54.8537 31.1357 54.8537 29.0713C54.8537 27 55.8928 25.6875 57.5061 25.6875ZM69.0971 23.9648C66.1713 23.9648 64.3393 25.9268 64.3393 29.0713C64.3393 32.209 66.1713 34.1709 69.0971 34.1709C72.016 34.1709 73.8549 32.209 73.8549 29.0713C73.8549 25.9268 72.016 23.9648 69.0971 23.9648ZM69.0971 25.6875C70.7104 25.6875 71.7426 27 71.7426 29.0713C71.7426 31.1357 70.7104 32.4414 69.0971 32.4414C67.477 32.4414 66.4447 31.1357 66.4447 29.0713C66.4447 27 67.4838 25.6875 69.0971 25.6875ZM85.0563 29.8574V28.7432H80.9V30.2471H83.0465L83.0396 30.4043C82.9986 31.6279 82.0621 32.4551 80.7154 32.4551C79.0748 32.4551 78.0357 31.1494 78.0357 29.0098C78.0357 26.9111 79.0133 25.6738 80.6402 25.6738C81.7545 25.6738 82.5953 26.2891 82.8961 27.3213H84.9674C84.6734 25.3252 82.9371 23.9648 80.6334 23.9648C77.735 23.9648 75.9303 25.8789 75.9303 29.0371C75.9303 32.2432 77.735 34.1709 80.6813 34.1709C83.4293 34.1709 85.0563 32.5439 85.0563 29.8574ZM93.8514 32.291H89.5379V24.1357H87.4734V34H93.8514V32.291ZM102.66 32.291H98.1895V29.8027H102.407V28.2168H98.1895V25.8379H102.66V24.1357H96.125V34H102.66V32.291ZM109.258 24.1357V34H111.323V30.8896H113.271C115.349 30.8896 116.791 29.5361 116.791 27.5127C116.791 25.4824 115.397 24.1357 113.373 24.1357H109.258ZM111.323 25.7695H112.827C114.009 25.7695 114.693 26.3984 114.693 27.5195C114.693 28.6475 114.002 29.2764 112.82 29.2764H111.323V25.7695ZM125.436 32.291H121.123V24.1357H119.058V34H125.436V32.291ZM134.17 34H136.364L132.932 24.1357H130.506L127.081 34H129.2L129.952 31.6074H133.418L134.17 34ZM131.661 26.0225H131.709L132.973 30.0625H130.396L131.661 26.0225ZM141.926 34V30.3154L145.364 24.1357H143.149L140.935 28.3467H140.887L138.679 24.1357H136.43L139.861 30.3154V34H141.926Z" fill="white"/>
</svg>
