<svg width="125" height="40" viewBox="0 0 125 40" fill="none" xmlns="http://www.w3.org/2000/svg">
<path d="M26.4466 26.9337C26.2094 27.5123 25.9458 28.0581 25.6559 28.571C25.366 29.0838 25.0498 29.577 24.7072 30.0504C24.2591 30.6816 23.8507 31.2208 23.4817 31.6679C23.1127 32.1151 22.7833 32.4701 22.4934 32.7332C22.0717 33.1277 21.6171 33.4301 21.1296 33.6405C20.642 33.851 20.1479 33.9562 19.6471 33.9562C19.2782 33.9562 18.8763 33.9036 18.4414 33.7984C18.0066 33.6932 17.5256 33.5353 16.9985 33.3249C16.4978 33.1145 16.0103 32.9633 15.5359 32.8712C15.0615 32.7792 14.6135 32.7332 14.1918 32.7332C13.7174 32.7332 13.243 32.7792 12.7687 32.8712C12.2943 32.9633 11.7936 33.1145 11.2665 33.3249C10.7394 33.5353 10.265 33.6997 9.84334 33.8181C9.42167 33.9364 9.05271 33.9956 8.73646 33.9956C8.26208 34.0219 7.78112 33.9299 7.29356 33.7195C6.806 33.509 6.31186 33.1803 5.81113 32.7332C5.52123 32.4438 5.17863 32.069 4.78331 31.6088C4.38799 31.1485 3.96633 30.5896 3.5183 29.9321C3.01757 29.2482 2.56296 28.4986 2.15447 27.6833C1.74597 26.8679 1.37043 26 1.02782 25.0795C0.685211 24.08 0.428259 23.0937 0.256955 22.1205C0.0856511 21.1474 0 20.2006 0 19.28C0 18.2016 0.118594 17.2022 0.355784 16.2816C0.592973 15.3611 0.948754 14.5063 1.42313 13.7173C1.7921 13.1123 2.21376 12.56 2.68814 12.0603C3.16252 11.5605 3.70278 11.1397 4.30893 10.7978C4.94144 10.4296 5.58052 10.1534 6.22621 9.96932C6.87189 9.7852 7.55051 9.68 8.26208 9.6537C8.6574 9.6537 9.112 9.71288 9.62591 9.83123C10.1398 9.94959 10.713 10.1271 11.3455 10.3638C11.9517 10.6005 12.459 10.7781 12.8675 10.8964C13.276 11.0148 13.5725 11.074 13.757 11.074C13.8887 11.074 14.1786 11.0082 14.6266 10.8767C15.0747 10.7452 15.6808 10.5348 16.4451 10.2455C17.1567 9.98247 17.8155 9.79836 18.4217 9.69315C19.0278 9.58794 19.5813 9.56164 20.082 9.61425C21.4261 9.71945 22.6054 10.0351 23.6201 10.5611C24.6347 11.0871 25.4846 11.8367 26.1698 12.8099C24.9575 13.52 24.0549 14.3879 23.4619 15.4137C22.869 16.4395 22.5725 17.6099 22.5725 18.9249C22.5725 19.9507 22.7635 20.8844 23.1457 21.726C23.5278 22.5677 24.0747 23.3304 24.7862 24.0142C25.1288 24.3299 25.4846 24.606 25.8536 24.8427C26.2225 25.0795 26.6047 25.2899 27 25.474C26.9209 25.7107 26.8353 25.954 26.743 26.2038C26.6508 26.4537 26.552 26.697 26.4466 26.9337ZM20.2796 2.67069C20.2796 3.45973 20.1281 4.22904 19.825 4.97863C19.522 5.72822 19.0805 6.44493 18.5007 7.12877C17.7892 7.94411 17.0183 8.57534 16.1881 9.02247C15.358 9.46959 14.4817 9.6537 13.5593 9.57479C13.5329 9.46959 13.5198 9.37096 13.5198 9.27891C13.5198 9.18685 13.5198 9.08822 13.5198 8.98301C13.5198 8.19397 13.6779 7.40494 13.9941 6.61589C14.3104 5.82685 14.7716 5.10357 15.3777 4.44603C15.6676 4.10411 16.0037 3.78849 16.3858 3.49918C16.7679 3.20986 17.183 2.96 17.631 2.74959C18.1054 2.51288 18.5534 2.33534 18.9751 2.21699C19.3968 2.09863 19.8184 2.0263 20.2401 2C20.2401 2.10521 20.2467 2.21699 20.2599 2.33534C20.2731 2.4537 20.2796 2.56548 20.2796 2.67069Z" fill="white"/>
<path d="M45.7871 13.9404C44.502 13.9404 43.6611 12.8945 43.6611 11.2881C43.6611 9.6748 44.502 8.62207 45.7871 8.62207C47.0791 8.62207 47.9541 9.70215 47.9541 11.2881C47.9541 12.8672 47.0791 13.9404 45.7871 13.9404ZM45.8076 17.6318C47.8789 17.6318 49.1436 16.5586 49.1436 14.7949V7.63086H48.0088V8.82715H47.9883C47.4961 8.02051 46.6279 7.5625 45.5889 7.5625C43.6953 7.5625 42.4443 9.03906 42.4443 11.2881C42.4443 13.5166 43.6953 15 45.5615 15C46.5938 15 47.4619 14.5352 47.9268 13.7354H47.9541V14.8906C47.9541 15.9365 47.1475 16.5996 45.876 16.5996C44.9053 16.5996 44.1738 16.2168 43.9961 15.6016H42.7588C42.9297 16.8252 44.1396 17.6318 45.8076 17.6318ZM53.7031 8.6084C54.8652 8.6084 55.6582 9.44238 55.6855 10.6934H51.6318C51.7139 9.44922 52.5479 8.6084 53.7031 8.6084ZM55.6582 12.8945C55.4463 13.585 54.7285 14.0225 53.8057 14.0225C52.4932 14.0225 51.6318 13.1133 51.6318 11.7119V11.6436H56.9229V11.1787C56.9229 8.9502 55.6924 7.5625 53.7236 7.5625C51.7139 7.5625 50.4014 9.05957 50.4014 11.3428C50.4014 13.626 51.707 15.0684 53.7783 15.0684C55.3506 15.0684 56.6289 14.1592 56.834 12.8945H55.6582ZM58.5635 5.96973V7.63086H57.5381V8.61523H58.5635V13.0859C58.5635 14.501 59.083 15.0547 60.416 15.0547C60.6963 15.0547 61.0381 15.0273 61.1816 14.9932V13.9883C61.0996 14.002 60.8125 14.0225 60.6689 14.0225C60.04 14.0225 59.7529 13.7148 59.7529 13.0381V8.61523H61.1885V7.63086H59.7529V5.96973H58.5635ZM65.9258 15H67.1152V7.63086H65.9258V15ZM66.5205 6.44141C66.9375 6.44141 67.2725 6.09961 67.2725 5.68945C67.2725 5.27246 66.9375 4.9375 66.5205 4.9375C66.1104 4.9375 65.7686 5.27246 65.7686 5.68945C65.7686 6.09961 66.1104 6.44141 66.5205 6.44141ZM69.1865 5.96973V7.63086H68.1611V8.61523H69.1865V13.0859C69.1865 14.501 69.7061 15.0547 71.0391 15.0547C71.3193 15.0547 71.6611 15.0273 71.8047 14.9932V13.9883C71.7227 14.002 71.4355 14.0225 71.292 14.0225C70.6631 14.0225 70.376 13.7148 70.376 13.0381V8.61523H71.8115V7.63086H70.376V5.96973H69.1865ZM79.5156 15.0684C81.5869 15.0684 82.9131 13.5986 82.9131 11.3154C82.9131 9.02539 81.5869 7.5625 79.5156 7.5625C77.4443 7.5625 76.1182 9.02539 76.1182 11.3154C76.1182 13.5986 77.4443 15.0684 79.5156 15.0684ZM79.5156 14.0088C78.1484 14.0088 77.3281 13.0039 77.3281 11.3154C77.3281 9.62695 78.1416 8.62207 79.5156 8.62207C80.8896 8.62207 81.7031 9.62012 81.7031 11.3154C81.7031 13.0039 80.8896 14.0088 79.5156 14.0088ZM84.1641 15H85.3535V10.7207C85.3535 9.45605 86.085 8.62207 87.2949 8.62207C88.457 8.62207 89.0176 9.27832 89.0176 10.4814V15H90.207V10.2764C90.207 8.60156 89.2705 7.5625 87.6504 7.5625C86.5088 7.5625 85.7773 7.99316 85.3125 8.82715H85.2852V7.63086H84.1641V15Z" fill="white"/>
<path d="M49.2803 34H51.4746L48.043 24.1357H45.6162L42.1914 34H44.3105L45.0625 31.6074H48.5283L49.2803 34ZM46.7715 26.0225H46.8193L48.084 30.0625H45.5068L46.7715 26.0225ZM53.5363 24.1357V34H55.6008V30.8896H57.549C59.6271 30.8896 61.0695 29.5361 61.0695 27.5127C61.0695 25.4824 59.675 24.1357 57.6516 24.1357H53.5363ZM55.6008 25.7695H57.1047C58.2873 25.7695 58.9709 26.3984 58.9709 27.5195C58.9709 28.6475 58.2805 29.2764 57.0979 29.2764H55.6008V25.7695ZM63.3363 24.1357V34H65.4008V30.8896H67.349C69.4271 30.8896 70.8695 29.5361 70.8695 27.5127C70.8695 25.4824 69.475 24.1357 67.4516 24.1357H63.3363ZM65.4008 25.7695H66.9047C68.0873 25.7695 68.7709 26.3984 68.7709 27.5195C68.7709 28.6475 68.0805 29.2764 66.8979 29.2764H65.4008V25.7695ZM76.825 31.1904C76.8865 33.043 78.3973 34.1709 80.7693 34.1709C83.2166 34.1709 84.7684 32.9609 84.7684 31.0469C84.7684 29.543 83.907 28.6953 81.9314 28.2715L80.7352 28.0186C79.6004 27.7588 79.1219 27.417 79.1219 26.8086C79.1219 26.0771 79.8055 25.5918 80.824 25.5918C81.8563 25.5918 82.5877 26.0977 82.6561 26.9316H84.5906C84.5564 25.1475 83.1141 23.9648 80.8172 23.9648C78.616 23.9648 77.0438 25.168 77.0438 26.9863C77.0438 28.4287 77.9393 29.3516 79.7576 29.7412L81.0428 30.0215C82.2322 30.2881 82.7039 30.6436 82.7039 31.2861C82.7039 32.0107 81.952 32.5371 80.8514 32.5371C79.7576 32.5371 78.91 32.0039 78.8143 31.1904H76.825ZM91.5469 34V25.8379H94.4385V24.1357H86.5977V25.8379H89.4824V34H91.5469ZM100.533 23.9648C97.6076 23.9648 95.7756 25.9268 95.7756 29.0713C95.7756 32.209 97.6076 34.1709 100.533 34.1709C103.452 34.1709 105.291 32.209 105.291 29.0713C105.291 25.9268 103.452 23.9648 100.533 23.9648ZM100.533 25.6875C102.147 25.6875 103.179 27 103.179 29.0713C103.179 31.1357 102.147 32.4414 100.533 32.4414C98.9133 32.4414 97.8811 31.1357 97.8811 29.0713C97.8811 27 98.9201 25.6875 100.533 25.6875ZM109.739 25.749H111.53C112.555 25.749 113.198 26.3643 113.198 27.3213C113.198 28.2988 112.589 28.8936 111.55 28.8936H109.739V25.749ZM109.739 30.3906H111.427L113.266 34H115.604L113.526 30.083C114.661 29.6387 115.317 28.5449 115.317 27.2803C115.317 25.332 114.018 24.1357 111.748 24.1357H107.674V34H109.739V30.3906ZM124.255 32.291H119.785V29.8027H124.003V28.2168H119.785V25.8379H124.255V24.1357H117.72V34H124.255V32.291Z" fill="white"/>
</svg>
