<svg width="35" height="36" viewBox="0 0 35 36" fill="none" xmlns="http://www.w3.org/2000/svg">
<circle cx="17.5" cy="18.1191" r="17.5" fill="#00B0AE"/>
<path d="M23.2173 19.833C22.9176 19.8009 22.6151 19.75 22.31 19.6804C22.0048 19.6108 21.7131 19.5278 21.4347 19.4315C21.06 19.2923 20.6799 19.2682 20.2944 19.3592C19.909 19.4502 19.561 19.6349 19.2505 19.9133L18.7687 20.3951C18.1477 19.9775 17.5696 19.5091 17.0343 18.9898C16.4989 18.4706 16.0278 17.8844 15.621 17.2313L16.1028 16.7495C16.3705 16.4818 16.5498 16.1445 16.6408 15.7377C16.7318 15.3308 16.7131 14.94 16.5846 14.5653C16.4775 14.2869 16.3892 13.9979 16.3196 13.6981C16.25 13.3983 16.1991 13.0931 16.167 12.7827C16.1028 12.2687 15.8726 11.8431 15.4764 11.5059C15.0803 11.1686 14.6253 11 14.1113 11H12.0557C12.0236 11 11.9888 11 11.9513 11C11.9138 11 11.879 11 11.8469 11C11.5792 11.0321 11.3276 11.1151 11.0921 11.2489C10.8565 11.3828 10.6531 11.5514 10.4818 11.7548C10.3105 11.9582 10.1874 12.1911 10.1124 12.4534C10.0375 12.7157 10 12.9861 10 13.2645C10.0535 13.8105 10.1392 14.3565 10.257 14.9026C10.3854 15.4486 10.5434 15.9839 10.7307 16.5086C10.9181 17.0332 11.1349 17.5471 11.3812 18.0503C11.6274 18.5535 11.8951 19.0353 12.1842 19.4957C12.4625 19.924 12.7623 20.3362 13.0835 20.7323C13.4047 21.1392 13.7473 21.5246 14.1113 21.8887C14.4754 22.2527 14.8608 22.5953 15.2677 22.9165C15.6638 23.2377 16.076 23.5375 16.5043 23.8158C16.9647 24.1263 17.4465 24.4047 17.9497 24.651C18.4529 24.8972 18.9695 25.1113 19.4995 25.2934C20.0294 25.4754 20.5621 25.6253 21.0974 25.743C21.6435 25.8715 22.1949 25.9572 22.7516 26C22.7837 26 22.8158 26 22.848 26C22.8801 26 22.9122 26 22.9443 26C23.2227 26 23.4904 25.9491 23.7473 25.8474C24.0043 25.7457 24.2184 25.5931 24.3897 25.3897C24.561 25.1863 24.7056 24.9641 24.8233 24.7232C24.9411 24.4823 25 24.2227 25 23.9443V21.8887C25 21.3747 24.8314 20.9224 24.4941 20.5316C24.1569 20.1408 23.7313 19.9079 23.2173 19.833ZM23.6349 21.8887V23.9443C23.6349 24.0514 23.6188 24.1424 23.5867 24.2173C23.5546 24.2923 23.5011 24.3619 23.4261 24.4261C23.3619 24.5011 23.2896 24.5546 23.2093 24.5867C23.129 24.6188 23.0193 24.6349 22.8801 24.6349C22.3876 24.5814 21.8951 24.5011 21.4026 24.394C20.9208 24.2869 20.4443 24.1478 19.9732 23.9764C19.5021 23.8051 19.0364 23.6124 18.576 23.3983C18.1263 23.1734 17.6874 22.9218 17.2591 22.6435C16.863 22.4079 16.4882 22.1456 16.1349 21.8565C15.7709 21.5675 15.4256 21.257 15.099 20.9251C14.7725 20.5931 14.4647 20.2452 14.1756 19.8812C13.8865 19.5171 13.6135 19.137 13.3565 18.7409C13.0782 18.3126 12.8319 17.8737 12.6178 17.424C12.3929 16.9743 12.1975 16.5139 12.0316 16.0428C11.8656 15.5717 11.7238 15.0899 11.606 14.5974C11.4989 14.1156 11.4186 13.6231 11.3651 13.1199C11.3651 13.0236 11.3812 12.9379 11.4133 12.863C11.4454 12.788 11.4775 12.7131 11.5096 12.6381C11.5739 12.5739 11.6542 12.5123 11.7505 12.4534C11.8469 12.3945 11.9486 12.3651 12.0557 12.3651H14.1113C14.2827 12.3651 14.4299 12.4267 14.553 12.5498C14.6761 12.6729 14.7591 12.8201 14.8019 12.9914C14.834 13.334 14.8983 13.6847 14.9946 14.0434C15.091 14.402 15.2088 14.7366 15.348 15.0471C15.3801 15.1863 15.3828 15.3201 15.356 15.4486C15.3292 15.5771 15.2784 15.6949 15.2034 15.8019L14.3201 16.621C14.2131 16.7173 14.1461 16.8431 14.1194 16.9984C14.0926 17.1536 14.1113 17.3009 14.1756 17.44C14.4325 17.9004 14.7216 18.3394 15.0428 18.757C15.3533 19.1745 15.6933 19.568 16.0626 19.9374C16.432 20.3067 16.8255 20.652 17.243 20.9732C17.6606 21.2837 18.0996 21.5675 18.56 21.8244C18.6991 21.8994 18.8464 21.9288 19.0016 21.9127C19.1569 21.8967 19.2827 21.8244 19.379 21.6959L20.2784 20.7966C20.3854 20.7002 20.5032 20.636 20.6317 20.6039C20.7602 20.5717 20.894 20.5931 21.0332 20.6681C21.3758 20.7966 21.7184 20.901 22.061 20.9813C22.4036 21.0616 22.7463 21.1392 23.0889 21.2141C23.2281 21.2463 23.3539 21.3239 23.4663 21.447C23.5787 21.5701 23.6349 21.7173 23.6349 21.8887Z" fill="white"/>
</svg>
