<svg width="35" height="36" viewBox="0 0 35 36" fill="none" xmlns="http://www.w3.org/2000/svg">
<circle cx="17.5" cy="18.1191" r="17.5" fill="#00B0AE"/>
<path d="M24.625 12H10.375C9.7194 12 9.15967 12.2279 8.6958 12.6836C8.23193 13.1393 8 13.6892 8 14.3333V23.6667C8 24.3108 8.23193 24.8607 8.6958 25.3164C9.15967 25.7721 9.7194 26 10.375 26H24.625C25.2806 26 25.8403 25.7721 26.3042 25.3164C26.7681 24.8607 27 24.3108 27 23.6667V14.3333C27 13.6892 26.7681 13.1393 26.3042 12.6836C25.8403 12.2279 25.2806 12 24.625 12ZM25.2188 13.1667L17.5 19L9.78125 13.1667H25.2188ZM9.1875 23.6667V14.3333L14.5312 18.4167L9.24316 23.9948C9.23079 23.9462 9.21842 23.8945 9.20606 23.8398C9.19368 23.7852 9.1875 23.7274 9.1875 23.6667ZM10.1152 24.7969L15.4775 19.2005L17.5 20.6953L19.4482 19.1823L24.8848 24.7969C24.86 24.809 24.0807 24.8151 22.5469 24.8151C21.013 24.8151 19.3307 24.8151 17.5 24.8151C15.6693 24.8151 13.987 24.8151 12.4531 24.8151C10.9193 24.8151 10.14 24.809 10.1152 24.7969ZM25.8125 23.6667C25.8125 23.7274 25.8063 23.7852 25.7939 23.8398C25.7816 23.8945 25.7692 23.9462 25.7568 23.9948L20.4688 18.4167L25.8125 14.3333V23.6667Z" fill="white"/>
</svg>
