<svg width="35" height="36" viewBox="0 0 35 36" fill="none" xmlns="http://www.w3.org/2000/svg">
<circle cx="17.5" cy="18.1191" r="17.5" fill="#00B0AE"/>
<path d="M23.364 12.636C21.6641 10.9361 19.404 10 17 10C14.596 10 12.3359 10.9361 10.636 12.636C8.93611 14.3359 8 16.596 8 19C8 21.404 8.93614 23.6641 10.636 25.364C12.3359 27.0639 14.596 28 17 28C19.404 28 21.6641 27.0639 23.364 25.364C25.0639 23.6641 26 21.404 26 19C26 16.596 25.0639 14.3359 23.364 12.636ZM23.289 23.7341C22.7508 23.3699 22.1874 23.0551 21.6032 22.7923C21.8612 21.7862 22.0144 20.6939 22.0527 19.5625H24.8547C24.7441 21.1212 24.1781 22.5559 23.289 23.7341ZM9.14532 19.5625H11.9473C11.9856 20.6939 12.1388 21.7863 12.3968 22.7923C11.8126 23.0551 11.2492 23.3698 10.711 23.7341C9.82187 22.5559 9.25585 21.1212 9.14532 19.5625ZM10.7108 14.2661C11.2491 14.6304 11.8125 14.9451 12.3967 15.2079C12.1387 16.2139 11.9856 17.3061 11.9473 18.4375H9.14532C9.25585 16.8789 9.82183 15.4442 10.7108 14.2661ZM20.6783 12.7691C20.4722 12.3826 20.2495 12.0339 20.0126 11.7245C20.9643 12.12 21.8222 12.6968 22.5431 13.4119C22.1344 13.6804 21.7098 13.917 21.272 14.1215C21.1002 13.6411 20.9019 13.1882 20.6783 12.7691ZM20.2225 14.5411C19.1955 14.8853 18.1117 15.0625 17 15.0625C15.8883 15.0625 14.8045 14.8853 13.7775 14.5411C14.4969 12.4931 15.6855 11.125 17 11.125C18.3145 11.125 19.5031 12.4931 20.2225 14.5411ZM13.0732 18.4375C13.1103 17.4411 13.2449 16.4891 13.4577 15.6209C14.5874 15.9951 15.7786 16.1875 17 16.1875C18.2214 16.1875 19.4126 15.9951 20.5423 15.6209C20.7551 16.4891 20.8897 17.4411 20.9268 18.4375H13.0732ZM20.9268 19.5625C20.8897 20.559 20.7551 21.511 20.5423 22.3792C19.4124 22.0049 18.2213 21.8125 17 21.8125C15.7787 21.8125 14.5876 22.0049 13.4577 22.3792C13.2449 21.511 13.1103 20.559 13.0732 19.5625H20.9268ZM13.3217 12.7691C13.0982 13.1882 12.8998 13.6411 12.728 14.1215C12.2903 13.917 11.8656 13.6804 11.4569 13.4118C12.1778 12.6968 13.0357 12.12 13.9874 11.7244C13.7505 12.0339 13.5278 12.3826 13.3217 12.7691ZM12.7281 23.8787C12.8998 24.359 13.0982 24.8119 13.3217 25.2309C13.5278 25.6174 13.7505 25.9661 13.9874 26.2755C13.0358 25.88 12.1779 25.3033 11.4571 24.5883C11.8658 24.3198 12.2904 24.0832 12.7281 23.8787ZM13.7776 23.459C14.8046 23.1147 15.8884 22.9375 17 22.9375C18.1116 22.9375 19.1954 23.1147 20.2224 23.459C19.503 25.5069 18.3144 26.875 17 26.875C15.6856 26.875 14.497 25.5069 13.7776 23.459ZM20.6783 25.2309C20.9018 24.8119 21.1001 24.359 21.2719 23.8787C21.7096 24.0832 22.1342 24.3198 22.5428 24.5883C21.8221 25.3033 20.9642 25.88 20.0126 26.2755C20.2495 25.9661 20.4722 25.6174 20.6783 25.2309ZM22.0527 18.4375C22.0144 17.3062 21.8612 16.2139 21.6033 15.2079C22.1875 14.9451 22.7509 14.6304 23.2891 14.2661C24.1781 15.4442 24.7441 16.8788 24.8546 18.4375H22.0527Z" fill="white"/>
</svg>
