<svg width="35" height="36" viewBox="0 0 35 36" fill="none" xmlns="http://www.w3.org/2000/svg">
<circle cx="17.5" cy="18.1191" r="17.5" fill="#00B0AE"/>
<path d="M17.125 10.1875C17.5208 10.1875 17.9136 10.2277 18.3032 10.3081C18.6929 10.3885 19.0732 10.5029 19.4443 10.6514C19.7907 10.7998 20.1216 10.9823 20.437 11.1987C20.7524 11.4152 21.0462 11.6595 21.3184 11.9316C21.5905 12.2038 21.8348 12.4976 22.0513 12.813C22.2677 13.1284 22.4502 13.4593 22.5986 13.8057C22.7471 14.1768 22.8615 14.5571 22.9419 14.9468C23.0223 15.3364 23.0625 15.7292 23.0625 16.125C23.0625 16.2363 23.0223 16.4744 22.9419 16.8394C22.8615 17.2043 22.6543 17.764 22.3203 18.5186C22.0853 19.0381 21.8039 19.6009 21.4761 20.207C21.1483 20.8132 20.7865 21.4378 20.3906 22.0811C20.0319 22.6748 19.6608 23.2531 19.2773 23.8159C18.8939 24.3787 18.529 24.889 18.1826 25.3467C17.9352 25.6559 17.7249 25.9126 17.5518 26.1167C17.3786 26.3208 17.2363 26.4785 17.125 26.5898C17.0137 26.4785 16.8683 26.3239 16.689 26.126C16.5096 25.9281 16.3024 25.6683 16.0674 25.3467C15.7087 24.889 15.3407 24.3818 14.9634 23.8252C14.5861 23.2686 14.2119 22.6934 13.8408 22.0996C13.4574 21.4687 13.1017 20.8503 12.7739 20.2441C12.4461 19.638 12.1647 19.069 11.9297 18.5371C11.5957 17.7825 11.3885 17.2197 11.3081 16.8486C11.2277 16.4775 11.1875 16.2363 11.1875 16.125C11.1875 15.7292 11.2277 15.3364 11.3081 14.9468C11.3885 14.5571 11.5029 14.1768 11.6514 13.8057C11.7998 13.4593 11.9823 13.1284 12.1987 12.813C12.4152 12.4976 12.6595 12.2038 12.9316 11.9316C13.2038 11.6595 13.4976 11.4152 13.813 11.1987C14.1284 10.9823 14.4593 10.7998 14.8057 10.6514C15.1768 10.5029 15.5571 10.3885 15.9468 10.3081C16.3364 10.2277 16.7292 10.1875 17.125 10.1875ZM17.125 9C16.1354 9 15.2108 9.18555 14.3511 9.55664C13.4914 9.92774 12.7368 10.438 12.0874 11.0874C11.438 11.7368 10.9277 12.4914 10.5566 13.3511C10.1855 14.2108 10 15.1354 10 16.125C10 16.8672 10.3154 17.9032 10.9463 19.2329C11.5772 20.5627 12.3008 21.8769 13.1172 23.1758C13.9336 24.4746 14.7314 25.6033 15.5107 26.562C16.29 27.5207 16.8281 28 17.125 28C17.4219 28 17.96 27.5207 18.7393 26.562C19.5186 25.6033 20.3164 24.4715 21.1328 23.1665C21.9492 21.8615 22.6728 20.5441 23.3037 19.2144C23.9346 17.8846 24.25 16.8548 24.25 16.125C24.25 15.1354 24.0645 14.2108 23.6934 13.3511C23.3223 12.4914 22.812 11.7368 22.1626 11.0874C21.5132 10.438 20.7586 9.92774 19.8989 9.55664C19.0392 9.18555 18.1146 9 17.125 9ZM17.125 13.1562C16.3086 13.1562 15.6097 13.4469 15.0283 14.0283C14.4469 14.6097 14.1562 15.3086 14.1562 16.125C14.1562 16.9414 14.4469 17.6403 15.0283 18.2217C15.6097 18.8031 16.3086 19.0938 17.125 19.0938C17.9414 19.0938 18.6403 18.8031 19.2217 18.2217C19.8031 17.6403 20.0938 16.9414 20.0938 16.125C20.0938 15.3086 19.8031 14.6097 19.2217 14.0283C18.6403 13.4469 17.9414 13.1562 17.125 13.1562ZM17.125 17.9062C16.6302 17.9062 16.2096 17.7331 15.8633 17.3867C15.5169 17.0404 15.3438 16.6198 15.3438 16.125C15.3438 15.6302 15.5169 15.2096 15.8633 14.8633C16.2096 14.5169 16.6302 14.3438 17.125 14.3438C17.6198 14.3438 18.0404 14.5169 18.3867 14.8633C18.7331 15.2096 18.9062 15.6302 18.9062 16.125C18.9062 16.6198 18.7331 17.0404 18.3867 17.3867C18.0404 17.7331 17.6198 17.9062 17.125 17.9062Z" fill="white"/>
</svg>
