<svg width="54" height="54" viewBox="0 0 54 54" fill="none" xmlns="http://www.w3.org/2000/svg">
<g clip-path="url(#clip0)">
<path d="M46.2138 54L7.50884 53.9692C3.23569 53.9692 0 50.4439 0 46.158L0.0308161 7.43091C0.0308161 3.14503 3.36922 0 7.64238 0L46.3473 0.0308337C50.6308 0.0308337 54 3.24781 54 7.53369L53.9795 46.2505C53.9692 50.5364 50.4972 54.0103 46.2138 54Z" fill="#00B0AE"/>
<path d="M35.8083 26.5992C36.0548 26.5992 36.2294 26.7225 36.2294 27V31.4195C36.2294 31.5325 36.1884 31.625 36.1062 31.7073C36.024 31.7895 35.9418 31.8306 35.8597 31.8306L31.5146 31.8409V36.1165C31.5146 36.2295 31.4735 36.322 31.3913 36.4043C31.3091 36.4865 31.227 36.5276 31.1448 36.5276L26.132 36.4968C26.0499 36.4968 26.471 36.4556 26.3888 36.3734C26.3067 36.2912 26.2656 36.1987 26.2656 36.0856V31.8409L21.9513 31.8306C21.8692 31.8306 21.787 31.7895 21.7048 31.7073C21.6226 31.625 21.5815 32.0362 21.5815 31.9231V27.0103C21.5815 26.743 21.7048 26.5992 21.9513 26.5992H26.2656L26.2553 22.2516C26.2553 21.9844 26.3683 21.9022 26.6148 21.9022H31.1551C31.4016 21.9022 31.5249 21.9535 31.5249 22.2311L31.5351 26.5889L35.8083 26.5992Z" fill="white"/>
<path d="M35.2228 9.96954C35.2228 9.96954 40.6669 15.7149 40.6669 21.8097C40.6669 20.1241 40.708 39.1793 40.7491 39.3951H26.9743C26.9743 39.3951 21.5712 39.354 19.1162 34.4206C17.4727 31.1831 17.9966 27.3289 20.1948 24.4408C21.4891 22.7141 23.2148 21.2855 25.3822 20.381C26.5943 19.8671 27.7961 19.5177 29.0082 19.3841C26.6353 18.9935 24.129 19.2505 21.7048 20.2885C20.6673 20.7202 19.7223 21.3266 18.8492 21.9741C18.8492 21.8919 18.8902 21.7994 18.8902 21.7583C18.8902 21.7583 18.8492 21.8919 18.7156 22.0563C14.35 25.5611 12.6654 31.5634 14.9561 36.8359C16.8153 41.1115 20.8317 44.0921 25.2383 44.5238H26.2347H45.9262V21.6349C45.9365 21.6863 44.6422 12.7343 35.2228 9.96954Z" fill="white"/>
<path d="M22.7833 11.8298C31.5043 11.8298 38.5509 18.9216 38.5509 27.6475C38.5509 28.4286 38.5098 29.1995 38.3763 29.9806C39.0645 28.2128 39.4548 26.26 39.4548 24.2763C39.4548 15.5504 32.3671 8.45868 23.6873 8.45868C15.7881 8.45868 9.21401 14.3376 8.09436 21.9433C10.3439 16.0232 16.0963 11.8298 22.7833 11.8298Z" fill="white"/>
<path d="M31.4632 17.1846C31.4632 17.1435 31.4632 17.1435 31.4632 17.1846C30.4668 16.5371 29.3471 15.9718 28.0529 15.5402C28.0118 15.5402 27.9707 15.4991 27.8782 15.4991C27.7961 15.4579 27.6625 15.4579 27.5804 15.4168C27.4468 15.3757 27.3236 15.3346 27.2311 15.3346C27.19 15.3346 27.1489 15.2935 27.0565 15.2935C26.8819 15.2524 26.7072 15.2113 26.5429 15.1599C26.5018 15.1599 26.5018 15.1599 26.4607 15.1599C26.2861 15.1188 26.0704 15.0777 25.8958 15.0263H25.8547C24.8583 14.8515 23.8722 14.7282 22.7833 14.7282C14.1035 14.7282 7.06714 21.4294 7.06714 29.6825C7.06714 36.4248 11.7306 42.0879 18.1712 43.9893C13.9391 41.3068 11.1349 36.7332 11.1349 31.5428C11.1349 28.8603 11.8642 26.3114 13.2098 24.1119C16.6612 18.3666 23.6154 15.8588 30.0559 17.7602C32.1309 18.3666 34.1545 19.4869 35.7569 21.5219C35.7877 21.4705 34.5345 19.086 31.4632 17.1846Z" fill="white"/>
</g>
<defs>
<clipPath id="clip0">
<rect width="54" height="54" fill="white"/>
</clipPath>
</defs>
</svg>
