<svg width="268" height="54" viewBox="0 0 268 54" fill="none" xmlns="http://www.w3.org/2000/svg">
<g clip-path="url(#clip0)">
<path d="M46.2138 54L7.50884 53.9692C3.23569 53.9692 0 50.4439 0 46.158L0.0308161 7.43091C0.0308161 3.14503 3.36922 0 7.64238 0L46.3473 0.0308337C50.6308 0.0308337 54 3.24781 54 7.53369L53.9795 46.2505C53.9692 50.5364 50.4972 54.0103 46.2138 54Z" fill="#00B0AE"/>
<path d="M35.8083 26.5992C36.0548 26.5992 36.2294 26.7225 36.2294 27V31.4195C36.2294 31.5326 36.1884 31.6251 36.1062 31.7073C36.024 31.7895 35.9418 31.8306 35.8597 31.8306L31.5146 31.8409V36.1165C31.5146 36.2296 31.4735 36.3221 31.3913 36.4043C31.3091 36.4865 31.227 36.5276 31.1448 36.5276L26.132 36.4968C26.0499 36.4968 26.471 36.4557 26.3888 36.3734C26.3067 36.2912 26.2656 36.1987 26.2656 36.0857V31.8409L21.9513 31.8306C21.8692 31.8306 21.787 31.7895 21.7048 31.7073C21.6226 31.6251 21.5815 32.0362 21.5815 31.9231V27.0103C21.5815 26.7431 21.7048 26.5992 21.9513 26.5992H26.2656L26.2553 22.2516C26.2553 21.9844 26.3683 21.9022 26.6148 21.9022H31.1551C31.4016 21.9022 31.5249 21.9536 31.5249 22.2311L31.5351 26.5889L35.8083 26.5992Z" fill="white"/>
<path d="M35.2228 9.96954C35.2228 9.96954 40.6669 15.7149 40.6669 21.8097C40.6669 20.1241 40.708 39.1793 40.7491 39.3951H26.9743C26.9743 39.3951 21.5712 39.354 19.1162 34.4206C17.4727 31.1831 17.9966 27.3289 20.1948 24.4408C21.4891 22.7141 23.2148 21.2855 25.3822 20.381C26.5943 19.8671 27.7961 19.5177 29.0082 19.3841C26.6353 18.9935 24.129 19.2505 21.7048 20.2885C20.6673 20.7202 19.7223 21.3266 18.8492 21.9741C18.8492 21.8919 18.8902 21.7994 18.8902 21.7583C18.8902 21.7583 18.8492 21.8919 18.7156 22.0563C14.35 25.5611 12.6654 31.5634 14.9561 36.8359C16.8153 41.1115 20.8317 44.0921 25.2383 44.5238H26.2347H45.9262V21.6349C45.9365 21.6863 44.6422 12.7343 35.2228 9.96954Z" fill="white"/>
<path d="M22.7833 11.8299C31.5043 11.8299 38.5509 18.9216 38.5509 27.6475C38.5509 28.4286 38.5098 29.1995 38.3763 29.9806C39.0645 28.2128 39.4548 26.26 39.4548 24.2764C39.4548 15.5504 32.3671 8.45871 23.6873 8.45871C15.7881 8.45871 9.21401 14.3377 8.09436 21.9433C10.3439 16.0232 16.0963 11.8299 22.7833 11.8299Z" fill="white"/>
<path d="M31.4632 17.1846C31.4632 17.1435 31.4632 17.1435 31.4632 17.1846C30.4668 16.5371 29.3472 15.9718 28.0529 15.5402C28.0118 15.5402 27.9707 15.4991 27.8783 15.4991C27.7961 15.4579 27.6626 15.4579 27.5804 15.4168C27.4469 15.3757 27.3236 15.3346 27.2311 15.3346C27.1901 15.3346 27.149 15.2935 27.0565 15.2935C26.8819 15.2524 26.7073 15.2113 26.5429 15.1599C26.5018 15.1599 26.5018 15.1599 26.4607 15.1599C26.2861 15.1188 26.0704 15.0777 25.8958 15.0263H25.8547C24.8583 14.8515 23.8722 14.7282 22.7834 14.7282C14.1035 14.7282 7.06717 21.4294 7.06717 29.6825C7.06717 36.4248 11.7307 42.0879 18.1712 43.9893C13.9391 41.3068 11.1349 36.7332 11.1349 31.5428C11.1349 28.8603 11.8642 26.3114 13.2098 24.1119C16.6612 18.3666 23.6154 15.8588 30.0559 17.7602C32.1309 18.3666 34.1545 19.4869 35.7569 21.5219C35.7877 21.4705 34.5345 19.086 31.4632 17.1846Z" fill="white"/>
</g>
<path d="M74.749 7.64844H78.6797V18.8677C78.6797 19.9084 78.4364 20.8368 77.9497 21.6528C77.4705 22.4689 76.7967 23.1016 75.9282 23.5508C75.0672 24 74.1051 24.2246 73.042 24.2246C71.2601 24.2246 69.875 23.7754 68.8867 22.877C67.8984 21.9785 67.4043 20.7057 67.4043 19.0586H71.3574C71.3574 19.8073 71.4847 20.3501 71.7393 20.687C72.0013 21.0239 72.4355 21.1924 73.042 21.1924C73.5885 21.1924 74.0078 20.9902 74.2998 20.5859C74.5993 20.1742 74.749 19.6014 74.749 18.8677V7.64844ZM92.349 17.0708H86.1497V20.9678H93.472V24H82.2079V7.64844H93.4945V10.6919H86.1497V14.1396H92.349V17.0708ZM109.174 10.6919H104.266V24H100.324V10.6919H95.5065V7.64844H109.174V10.6919ZM119.822 20.9453H114.42L113.477 24H109.266L115.263 7.64844H118.969L125.011 24H120.777L119.822 20.9453ZM115.364 17.9019H118.879L117.116 12.2305L115.364 17.9019ZM133.323 18.2275H131.189V24H127.247V7.64844H133.682C135.622 7.64844 137.138 8.07894 138.231 8.93994C139.324 9.80094 139.87 11.0176 139.87 12.5898C139.87 13.7279 139.638 14.6712 139.174 15.4199C138.717 16.1686 137.999 16.7751 137.018 17.2393L140.432 23.8315V24H136.209L133.323 18.2275ZM131.189 15.1841H133.682C134.431 15.1841 134.993 14.9894 135.367 14.6001C135.749 14.2033 135.94 13.653 135.94 12.9492C135.94 12.2454 135.749 11.6951 135.367 11.2983C134.985 10.894 134.424 10.6919 133.682 10.6919H131.189V15.1841ZM155.561 10.6919H150.654V24H146.712V10.6919H141.894V7.64844H155.561V10.6919ZM169.536 7.64844L173.185 19.0249L176.824 7.64844H182.013V24H178.059V20.1816L178.441 12.3652L174.488 24H171.883L167.918 12.354L168.3 20.1816V24H164.358V7.64844H169.536ZM195.704 17.0708H189.505V20.9678H196.827V24H185.563V7.64844H196.85V10.6919H189.505V14.1396H195.704V17.0708ZM199.468 24V7.64844H204.735C206.18 7.64844 207.479 7.97786 208.632 8.63672C209.785 9.28809 210.684 10.2127 211.328 11.4106C211.979 12.6011 212.308 13.9375 212.316 15.4199V16.1724C212.316 17.6698 211.998 19.0137 211.361 20.2041C210.732 21.387 209.842 22.3154 208.689 22.9893C207.543 23.6556 206.263 23.9925 204.848 24H199.468ZM203.41 10.6919V20.9678H204.78C205.911 20.9678 206.779 20.5672 207.386 19.7661C207.992 18.9575 208.295 17.7596 208.295 16.1724V15.4648C208.295 13.8851 207.992 12.6947 207.386 11.8936C206.779 11.0924 205.896 10.6919 204.735 10.6919H203.41ZM219.573 24H215.642V7.64844H219.573V24ZM236.577 18.4634C236.525 19.6014 236.218 20.6084 235.656 21.4844C235.095 22.3529 234.305 23.0267 233.287 23.5059C232.276 23.985 231.119 24.2246 229.817 24.2246C227.668 24.2246 225.976 23.5246 224.74 22.1245C223.505 20.7244 222.887 18.7479 222.887 16.1948V15.3862C222.887 13.784 223.164 12.384 223.718 11.186C224.28 9.98063 225.085 9.05225 226.133 8.40088C227.181 7.74202 228.394 7.4126 229.772 7.4126C231.756 7.4126 233.35 7.93669 234.556 8.98486C235.761 10.0256 236.446 11.4631 236.611 13.2974H232.68C232.65 12.3016 232.4 11.5866 231.928 11.1523C231.456 10.7181 230.738 10.501 229.772 10.501C228.791 10.501 228.072 10.8678 227.615 11.6016C227.159 12.3353 226.919 13.507 226.897 15.1167V16.2734C226.897 18.0179 227.114 19.2645 227.548 20.0132C227.99 20.7619 228.746 21.1362 229.817 21.1362C230.723 21.1362 231.415 20.9229 231.894 20.4961C232.373 20.0693 232.628 19.3918 232.658 18.4634H236.577ZM248.764 20.9453H243.362L242.419 24H238.208L244.205 7.64844H247.911L253.953 24H249.719L248.764 20.9453ZM244.306 17.9019H247.821L246.058 12.2305L244.306 17.9019ZM260.131 20.9678H266.993V24H256.189V7.64844H260.131V20.9678Z" fill="#00B0AE"/>
<path d="M75.1377 42.832C74.7949 43.2425 74.3104 43.562 73.6841 43.7905C73.0578 44.0148 72.3638 44.127 71.6021 44.127C70.8022 44.127 70.0998 43.9535 69.4946 43.6064C68.8937 43.2552 68.4282 42.7474 68.0981 42.083C67.7723 41.4186 67.6051 40.6379 67.5967 39.7407V39.1123C67.5967 38.1898 67.7511 37.3921 68.0601 36.7192C68.3732 36.0422 68.8218 35.5259 69.4058 35.1704C69.994 34.8107 70.6816 34.6309 71.4688 34.6309C72.5648 34.6309 73.4217 34.8932 74.0396 35.418C74.6574 35.9385 75.0234 36.6981 75.1377 37.6968H73.2842C73.1995 37.1678 73.0112 36.7806 72.7192 36.5352C72.4315 36.2897 72.0337 36.167 71.5259 36.167C70.8784 36.167 70.3854 36.4103 70.0469 36.897C69.7083 37.3836 69.5369 38.1073 69.5327 39.0679V39.6582C69.5327 40.6273 69.7168 41.3594 70.085 41.8545C70.4531 42.3496 70.9927 42.5972 71.7036 42.5972C72.4188 42.5972 72.9287 42.4448 73.2334 42.1401V40.5469H71.5005V39.144H75.1377V42.832ZM79.6864 44H77.7821V34.7578H79.6864V44ZM87.7645 42.0957H84.4256L83.7908 44H81.7659L85.2063 34.7578H86.971L90.4305 44H88.4056L87.7645 42.0957ZM84.9397 40.5532H87.2503L86.0887 37.0938L84.9397 40.5532ZM85.4222 34.0024L85.327 33.1519C85.6359 33.1349 85.858 33.0968 85.9935 33.0376C86.1331 32.9741 86.2029 32.8747 86.2029 32.7393C86.2029 32.4473 85.9025 32.3013 85.3016 32.3013L85.346 31.4443C86.1416 31.4443 86.7404 31.5544 87.1424 31.7744C87.5486 31.9945 87.7518 32.297 87.7518 32.6821C87.7518 32.9318 87.665 33.137 87.4915 33.2979C87.318 33.4544 87.0874 33.5539 86.7996 33.5962V34.0024H85.4222ZM94.2937 44H92.3894V34.7578H94.2937V44ZM103.156 40.7437V44H101.252V34.7578H104.857C105.551 34.7578 106.161 34.8848 106.686 35.1387C107.215 35.3926 107.621 35.7544 107.904 36.2241C108.188 36.6896 108.33 37.2207 108.33 37.8174C108.33 38.723 108.019 39.4382 107.396 39.9629C106.779 40.4834 105.922 40.7437 104.826 40.7437H103.156ZM103.156 39.2012H104.857C105.361 39.2012 105.744 39.0827 106.006 38.8457C106.273 38.6087 106.406 38.2702 106.406 37.8301C106.406 37.3773 106.273 37.0112 106.006 36.7319C105.74 36.4526 105.372 36.3088 104.902 36.3003H103.156V39.2012ZM118.141 44H116.236V40.0391H112.523V44H110.619V34.7578H112.523V38.5029H116.236V34.7578H118.141V44ZM126.117 42.0957H122.778L122.143 44H120.118L123.559 34.7578H125.324L128.783 44H126.758L126.117 42.0957ZM123.292 40.5532H125.603L124.441 37.0938L123.292 40.5532ZM124.835 32.2822H126.834L125.076 34.25H123.584L124.835 32.2822ZM132.526 40.7437V44H130.621V34.7578H134.227C134.921 34.7578 135.53 34.8848 136.055 35.1387C136.584 35.3926 136.99 35.7544 137.274 36.2241C137.557 36.6896 137.699 37.2207 137.699 37.8174C137.699 38.723 137.388 39.4382 136.766 39.9629C136.148 40.4834 135.291 40.7437 134.195 40.7437H132.526ZM132.526 39.2012H134.227C134.73 39.2012 135.113 39.0827 135.376 38.8457C135.642 38.6087 135.776 38.2702 135.776 37.8301C135.776 37.3773 135.642 37.0112 135.376 36.7319C135.109 36.4526 134.741 36.3088 134.271 36.3003H132.526V39.2012ZM147.387 38.9219L149.31 34.7578H151.392L148.358 40.6484V44H146.422V40.6484L143.388 34.7578H145.476L147.387 38.9219ZM164 36.3003H161.169V44H159.264V36.3003H156.471V34.7578H164V36.3003ZM171.627 39.9946H167.971V42.4702H172.262V44H166.067V34.7578H172.249V36.3003H167.971V38.5029H171.627V39.9946ZM168.745 32.7773H169.78L171.589 34.2373H170.218L169.259 33.4375L168.301 34.2373H166.936L168.745 32.7773ZM172.154 31.6602H173.62L172.179 33.3867H171.119L172.154 31.6602ZM185.143 36.3003H182.312V44H180.407V36.3003H177.614V34.7578H185.143V36.3003ZM194.731 44H192.827V40.0391H189.114V44H187.209V34.7578H189.114V38.5029H192.827V34.7578H194.731V44ZM204.968 39.5884C204.968 40.4982 204.807 41.2959 204.485 41.9814C204.164 42.667 203.702 43.196 203.101 43.5684C202.505 43.9408 201.819 44.127 201.045 44.127C200.279 44.127 199.595 43.9429 198.994 43.5747C198.394 43.2065 197.928 42.6818 197.598 42.0005C197.268 41.3149 197.101 40.5278 197.096 39.6392V39.1821C197.096 38.2723 197.259 37.4725 197.585 36.7827C197.915 36.0887 198.379 35.5576 198.975 35.1895C199.576 34.8171 200.262 34.6309 201.032 34.6309C201.802 34.6309 202.486 34.8171 203.082 35.1895C203.683 35.5576 204.147 36.0887 204.472 36.7827C204.803 37.4725 204.968 38.2702 204.968 39.1758V39.5884ZM203.038 39.1694C203.038 38.2004 202.864 37.464 202.517 36.9604C202.17 36.4569 201.675 36.2051 201.032 36.2051C200.393 36.2051 199.9 36.4548 199.553 36.9541C199.206 37.4492 199.03 38.1771 199.026 39.1377V39.5884C199.026 40.5321 199.2 41.2642 199.547 41.7847C199.894 42.3052 200.393 42.5654 201.045 42.5654C201.684 42.5654 202.175 42.3158 202.517 41.8164C202.86 41.3128 203.034 40.5807 203.038 39.6201V39.1694ZM203.47 34.0596V34.1357H202.01L201.032 33.2153L200.054 34.1357H198.62V34.0342L200.499 32.2822H201.565L203.47 34.0596ZM214.842 44H212.938L209.231 37.9189V44H207.326V34.7578H209.231L212.944 40.8516V34.7578H214.842V44ZM224.793 42.832C224.45 43.2425 223.965 43.562 223.339 43.7905C222.713 44.0148 222.019 44.127 221.257 44.127C220.457 44.127 219.755 43.9535 219.15 43.6064C218.549 43.2552 218.083 42.7474 217.753 42.083C217.427 41.4186 217.26 40.6379 217.252 39.7407V39.1123C217.252 38.1898 217.406 37.3921 217.715 36.7192C218.028 36.0422 218.477 35.5259 219.061 35.1704C219.649 34.8107 220.337 34.6309 221.124 34.6309C222.22 34.6309 223.077 34.8932 223.694 35.418C224.312 35.9385 224.678 36.6981 224.793 37.6968H222.939C222.854 37.1678 222.666 36.7806 222.374 36.5352C222.086 36.2897 221.689 36.167 221.181 36.167C220.533 36.167 220.04 36.4103 219.702 36.897C219.363 37.3836 219.192 38.1073 219.188 39.0679V39.6582C219.188 40.6273 219.372 41.3594 219.74 41.8545C220.108 42.3496 220.648 42.5972 221.358 42.5972C222.074 42.5972 222.584 42.4448 222.888 42.1401V40.5469H221.155V39.144H224.793V42.832ZM234.017 34.7578L236.391 41.4609L238.752 34.7578H241.253V44H239.343V41.4736L239.533 37.1128L237.038 44H235.731L233.243 37.1191L233.433 41.4736V44H231.529V34.7578H234.017ZM245.916 44H244.012V34.7578H245.916V44ZM256.178 44H254.274L250.567 37.9189V44H248.662V34.7578H250.567L254.28 40.8516V34.7578H256.178V44ZM266.338 44H264.434V40.0391H260.72V44H258.816V34.7578H260.72V38.5029H264.434V34.7578H266.338V44Z" fill="#3E3E3E"/>
<defs>
<clipPath id="clip0">
<rect width="54" height="54" fill="white"/>
</clipPath>
</defs>
</svg>
